# xmcd CD database file
#
# Track frame offsets:
#	150
#	12301
#	27930
#	42632
#	61522
#	77947
#	97949
#	115934
#	132633
#	145531
#
# Disc length: 2141 seconds
#
# Revision: 0
# Processed by: cddbd v1.5.2PL0 Copyright (c) Steve Scherf et al.
# Submitted via: CDex 1.51
#
DISCID=7f085b0a
DTITLE=Moniacs - On Higher Grounds
DYEAR=2013
DGENRE=Blues
TTITLE0=Blues Acadiana
TTITLE1=Ain´t No Sunshine
TTITLE2=Lipstick Trace
TTITLE3=Right Place, Wrong Time
TTITLE4=Come Together
TTITLE5=Dangerous Mood
TTITLE6=On Your Way Down
TTITLE7=I´ll Play The Blues For You
TTITLE8=Ain´t No Love In The Heart Of The City
TTITLE9=Who Do You Think You Are
EXTD=YEAR: 2013
EXTT0=
EXTT1=
EXTT2=
EXTT3=
EXTT4=
EXTT5=
EXTT6=
EXTT7=
EXTT8=
EXTT9=
PLAYORDER=
